<?xml version="1.0" ?>
<!-- Uploaded to: SVG Repo, www.svgrepo.com, Generator: SVG Repo Mixer Tools -->
<svg width="800px" height="800px" viewBox="0 0 20 20" version="1.1" xmlns="http://www.w3.org/2000/svg">
<g id="layer1">
<path d="M 0 5 L 0 15 L 19 15 L 19 12.5 L 20 11.5 L 20 8.5 L 19 7.5 L 19 5 L 0 5 z M 1 6 L 18 6 L 18 8 L 19 9 L 19 11 L 18 12 L 18 14 L 1 14 L 1 6 z M 2 7 L 2 13 L 3 13 L 3 7 L 2 7 z M 4 7 L 4 13 L 5 13 L 5 7 L 4 7 z M 6 7 L 6 13 L 7 13 L 7 7 L 6 7 z M 8 7 L 8 13 L 9 13 L 9 7 L 8 7 z M 10 7 L 10 13 L 11 13 L 11 7 L 10 7 z M 12 7 L 12 13 L 13 13 L 13 7 L 12 7 z " style="fill:#222222; fill-opacity:1; stroke:none; stroke-width:0px;"/>
</g>
</svg>