<?xml version="1.0" encoding="iso-8859-1"?>
<!-- Uploaded to: SVG Repo, www.svgrepo.com, Generator: SVG Repo Mixer Tools -->
<svg height="800px" width="800px" version="1.1" id="Capa_1" xmlns="http://www.w3.org/2000/svg" xmlns:xlink="http://www.w3.org/1999/xlink" 
	 viewBox="0 0 51.666 51.666" xml:space="preserve">
<g>
	<path style="fill:#010002;" d="M40.834,14.002H3c-1.658,0-3,1.343-3,3v17.663c0,1.656,1.342,3,3,3h37.834c1.656,0,3-1.344,3-3
		V17.001C43.834,15.343,42.49,14.002,40.834,14.002z M39.916,30.333c0,1.657-1.343,3-3,3h-30c-1.657,0-3-1.343-3-3v-9
		c0-1.656,1.343-3,3-3h30c1.657,0,3,1.344,3,3V30.333z"/>
	<path style="fill:#010002;" d="M48.666,34.145h-0.375c-1.657,0-3-1.343-3-3V20.52c0-1.656,1.343-3,3-3h0.375c1.657,0,3,1.344,3,3
		v10.625C51.666,32.803,50.323,34.145,48.666,34.145z"/>
	<path style="fill:#010002;" d="M23.124,30.25h-13.5c-1.657,0-3-1.343-3-3v-2.834c0-1.657,1.343-3,3-3h13.5c1.657,0,3,1.343,3,3
		v2.834C26.124,28.907,24.781,30.25,23.124,30.25z"/>
</g>
</svg>