<svg id="svg22" xmlns="http://www.w3.org/2000/svg" viewBox="0 0 146.8 120.41"><defs><style>.cls-1{fill:none;}.cls-2{fill:#231f20;}.cls-3{fill:#ff5f00;}.cls-4{fill:#eb001b;}.cls-5{fill:#f79e1b;}</style></defs><g id="Layer_2" data-name="Layer 2"><g id="Layer_1-2" data-name="Layer 1-2"><rect id="rect8" class="cls-1" width="146.8" height="120.41"/><path id="path10" class="cls-2" d="M36.35,105.26v-6A3.56,3.56,0,0,0,33,95.46h-.45a3.69,3.69,0,0,0-3.36,1.7,3.5,3.5,0,0,0-3.16-1.7,3.15,3.15,0,0,0-2.8,1.42V95.7H21.19v9.56h2.1V100a2.23,2.23,0,0,1,1.92-2.52,2,2,0,0,1,.42,0c1.38,0,2.08.9,2.08,2.52v5.32h2.1V100a2.25,2.25,0,0,1,1.94-2.52,1.79,1.79,0,0,1,.4,0c1.42,0,2.1.9,2.1,2.52v5.32ZM67.42,95.7H64V92.8H61.9v2.9H60v1.9h1.94V102c0,2.22.86,3.54,3.32,3.54a4.88,4.88,0,0,0,2.6-.74l-.6-1.78a3.86,3.86,0,0,1-1.84.54c-1,0-1.38-.64-1.38-1.6V97.6h3.4Zm17.74-.24a2.83,2.83,0,0,0-2.52,1.4V95.7H80.58v9.56h2.08V99.9c0-1.58.68-2.46,2-2.46a3.41,3.41,0,0,1,1.3.24l.64-2a4.44,4.44,0,0,0-1.48-.26Zm-26.82,1a7.13,7.13,0,0,0-3.9-1c-2.42,0-4,1.16-4,3.06,0,1.56,1.16,2.52,3.3,2.82l1,.14c1.14.16,1.68.46,1.68,1,0,.74-.76,1.16-2.18,1.16a5.12,5.12,0,0,1-3.18-1l-1,1.62a6.87,6.87,0,0,0,4.14,1.24c2.76,0,4.36-1.3,4.36-3.12s-1.26-2.56-3.34-2.86l-1-.14c-.9-.12-1.62-.3-1.62-.94s.68-1.12,1.82-1.12a6.09,6.09,0,0,1,3,.82Zm55.71-1a2.83,2.83,0,0,0-2.52,1.4V95.7h-2.06v9.56h2.08V99.9c0-1.58.68-2.46,2-2.46a3.41,3.41,0,0,1,1.3.24l.64-2a4.44,4.44,0,0,0-1.48-.26Zm-26.8,5a4.82,4.82,0,0,0,4.65,5,3.38,3.38,0,0,0,.45,0,5,5,0,0,0,3.44-1.14l-1-1.68a4.2,4.2,0,0,1-2.5.86,3.07,3.07,0,0,1,0-6.12,4.2,4.2,0,0,1,2.5.86l1-1.68a5,5,0,0,0-3.44-1.14,4.85,4.85,0,0,0-5.1,4.55c0,.15,0,.3,0,.45Zm19.48,0V95.7h-2.08v1.16a3.64,3.64,0,0,0-3-1.4,5,5,0,0,0,0,10,3.64,3.64,0,0,0,3-1.4v1.16h2.08Zm-7.74,0a2.82,2.82,0,1,1,0,.23A1.77,1.77,0,0,1,99,100.46Zm-25.1-5a5,5,0,0,0,.14,10,5.84,5.84,0,0,0,4-1.3l-1-1.54a4.55,4.55,0,0,1-2.78,1,2.65,2.65,0,0,1-2.86-2.34h7.1v-.8c0-3-1.86-5-4.54-5Zm0,1.86a2.37,2.37,0,0,1,2.42,2.32h-5a2.45,2.45,0,0,1,2.54-2.32ZM126,100.48V91.86h-2v5a3.64,3.64,0,0,0-3-1.4,5,5,0,0,0,0,10,3.64,3.64,0,0,0,3-1.4v1.16h2Zm3.47,3.39a1,1,0,0,1,.38.07,1,1,0,0,1,.52.5,1,1,0,0,1,0,.74,1,1,0,0,1-.52.5,1,1,0,0,1-1.28-.5,1,1,0,0,1,0-.74,1,1,0,0,1,.52-.5,1,1,0,0,1,.41-.07Zm0,1.69a.72.72,0,0,0,.29-.06.72.72,0,0,0,0-1.32.73.73,0,0,0-.58,0,.78.78,0,0,0-.24.16.74.74,0,0,0,0,1,.78.78,0,0,0,.24.16.87.87,0,0,0,.32.06Zm.06-1.19a.4.4,0,0,1,.26.08.28.28,0,0,1,0,.39.4.4,0,0,1-.21.09l.29.33h-.23l-.27-.33h-.09v.33h-.19v-.88Zm-.22.17v.24h.22a.24.24,0,0,0,.12,0,.14.14,0,0,0,0-.09.14.14,0,0,0,0-.09h-.12Zm-11-4.06a2.82,2.82,0,1,1,0,.23A1.77,1.77,0,0,1,118.31,100.48Zm-70.23,0V95.7H46v1.16a3.64,3.64,0,0,0-3-1.4,5,5,0,1,0,0,10,3.64,3.64,0,0,0,3-1.4v1.16h2.08Zm-7.74,0a2.64,2.64,0,1,1,0,.25,2,2,0,0,1,0-.25Z"/><g id="_Group_" data-name=" Group "><rect id="rect12" class="cls-3" x="57.65" y="22.85" width="31.5" height="56.61"/><path id="_Path_" data-name=" Path " class="cls-4" d="M59.65,51.16A35.94,35.94,0,0,1,73.4,22.85a36,36,0,1,0,0,56.61A35.94,35.94,0,0,1,59.65,51.16Z"/><path id="path15" class="cls-5" d="M131.65,51.16A36,36,0,0,1,73.4,79.46a36,36,0,0,0,0-56.61,36,36,0,0,1,58.25,28.3Z"/><path id="path17" class="cls-5" d="M128.21,73.46V72.3h.47v-.24h-1.19v.24H128v1.16Zm2.31,0v-1.4h-.36l-.42,1-.42-1H129v1.4h.26v-1l.39.91h.27l.39-.91v1.06Z"/></g></g></g></svg>